ply
format ascii 1.0
element vertex 8
property double x
property double y
property double z
property uchar red
property uchar green
property uchar blue
element face 0
property list uchar int vertex_indices
end_header
0.4455907828 -17.4665518868 -0.0177047299 0 0 0
-6.4558265173 -14.413376838 -0.0095136302 0 0 0
-0.4456427575 -17.466895821  0.0723577074 0 0 0
0.9987498057 -14.6233701121 -0.0060135456 0 0 0
-5.0115379037 -11.5705389974 0.0922399914 0 0 0
0.9986978309 -14.6237140462 0.0840488918 0 0 0
-5.0114859289 -11.5701950633 0.0021775541 0 0 0
-6.4558784921 -14.4137207721 0.0805488071 0 0 0