ply
format ascii 1.0
element vertex 8
property double x
property double y
property double z
property uchar red
property uchar green
property uchar blue
element face 0
property list uchar int vertex_indices
end_header
-6.028911950094383 -12.519208351547555 2.202196175433555 0 0 0
-6.013115985783925 -12.542461400210094 0.027264554330522 0 0 0
-5.586221160569583 -13.866285777798065 2.219813457965538 0 0 0
-5.570425196259125 -13.889538826460605 0.044881836862505 0 0 0
-5.330677457755788 -12.289712937714881 2.204813645813034 0 0 0
-5.314881493445331 -12.31296598637742  0.029882024710002 0 0 0
-4.887986668230988 -13.636790363965392 2.222430928345017 0 0 0
-4.872190703920531 -13.660043412627932 0.047499307241985 255 0 0