ply
format ascii 1.0
element vertex 48
property double x
property double y
property double z
property uchar red
property uchar green
property uchar blue
element face 0
property list uchar int vertex_indices
end_header
-2.069382 -13.911818 0.435 0 0 0
-2.058991 -13.898032 0.454 0 0 0
-2.089659 -13.931789 0.426 0 0 0
-2.062169 -13.904269 0.438 0 0 0
-2.051341 -13.891829 0.452 0 0 0
-2.066221 -13.907817 0.437 0 0 0
-2.09282 -13.935789 0.419 0 0 0
-2.057192 -13.896705 0.453 0 0 0
-2.076578 -13.91713 0.442 0 0 0
-2.060807 -13.901596 0.443 0 0 0
-2.113114 -13.957997 0.405 0 0 0
-2.076578 -13.91713 0.441 0 0 0
-2.061715 -13.903378 0.44 0 0 0
-2.074342 -13.917147 0.431 0 0 0
-2.084245 -13.925569 0.438 0 0 0
-2.007987 -13.718635 0.788 0 0 0
-1.877909 -13.668191 0.703 0 0 0
-2.050891 -13.714731 0.798 0 0 0
-1.942837 -13.678879 0.733 0 0 0
-2.003328 -13.694073 0.765 0 0 0
-2.03697 -13.707233 0.787 0 0 0
-1.913184 -13.719802 0.759 0 0 0
-1.882381 -13.668157 0.704 0 0 0
-1.944085 -13.725381 0.774 0 0 0
-1.992789 -13.719645 0.784 0 0 0
-1.962274 -13.706012 0.763 0 0 0
-1.974413 -13.714417 0.774 0 0 0
-1.958392 -13.724825 0.778 0 0 0
-1.967115 -13.695689 0.755 0 0 0
-1.927758 -13.69554 0.742 0 0 0
-1.994049 -13.708901 0.775 0 0 0
-1.944454 -13.715092 0.765 0 0 0
-1.989509 -13.699991 0.766 0 0 0
-1.924347 -13.717481 0.761 0 0 0
-1.924835 -13.722843 0.765 0 0 0
-1.93694 -13.726776 0.773 0 0 0
-2.001665 -13.710632 0.779 0 0 0
-1.967722 -13.716703 0.774 0 0 0
-1.888402 -13.695393 0.73 0 0 0
-2.069619 -13.707433 0.798 0 0 0
-2.038332 -13.709907 0.79 0 0 0
-2.00427 -13.700326 0.771 0 0 0
-2.020461 -13.712279 0.786 0 0 0
-1.947513 -13.705677 0.758 0 0 0
-1.92105 -13.695591 0.74 0 0 0
-2.007431 -13.704328 0.775 0 0 0
-1.899967 -13.687254 0.726 0 0 0
-1.893764 -13.694904 0.731 0 0 0