ply
format ascii 1.0
element vertex 33
property double x
property double y
property double z
property uchar red
property uchar green
property uchar blue
element face 0
property list uchar int vertex_indices
end_header
-4.788457 -11.723916 0.692 170 0 255
-4.793417 -11.729245 0.689 170 0 255
-4.778287 -11.739199 0.686 170 0 255
-4.79592 -11.705523 0.698 170 0 255
-4.785767 -11.723042 0.692 170 0 255
-4.796493 -11.722066 0.691 170 0 255
-4.78155 -11.756617 0.678 170 0 255
-4.77911 -11.729801 0.69 170 0 255
-4.782708 -11.732457 0.689 170 0 255
-4.791431 -11.703321 0.7 170 0 255
-4.793048 -11.739534 0.684 170 0 255
-4.750008 -11.72555 0.708 170 0 255
-4.751892 -11.738058 0.705 170 0 255
-4.763861 -11.724103 0.698 170 0 255
-4.75448 -11.725516 0.705 170 0 255
-4.757187 -11.728625 0.703 170 0 255
-4.657797 -11.773656 0.705 170 0 255
-4.738862 -11.730106 0.71 170 0 255
-4.657292 -11.766056 0.705 170 0 255
-4.656958 -11.780818 0.706 170 0 255
-4.669766 -11.759701 0.705 170 0 255
-4.896019 -11.694924 0.682 170 0 255
-4.925591 -11.702303 0.674 170 0 255
-4.888335 -11.68425 0.685 170 0 255
-4.761489 -11.706232 0.704 170 0 255
-4.737347 -11.70731 0.708 170 0 255
-4.74498 -11.711277 0.709 170 0 255
-4.643877 -11.766159 0.703 170 0 255
-4.662083 -11.749026 0.704 170 0 255
-4.746325 -11.711714 0.709 170 0 255
-4.805569 -11.680406 0.701 170 0 255
-4.783714 -11.688174 0.704 170 0 255
-4.807385 -11.683969 0.7 170 0 255
