ply
format ascii 1.0
element vertex 8
property double x
property double y
property double z
property uchar red
property uchar green
property uchar blue
element face 0
property list uchar int vertex_indices
end_header
-1.263547942277163 -19.483953944114532 -0.010969012527718 0 0 0
-1.262990038702831 -19.484238218214138 0.091331310433036 0 123 0
3.057183494801537 -11.004280573108554 -0.010969012527718 0 0 255
3.057741398375868 -11.004564847208156 0.091331310433036 0 123 0
3.389238810517432 -21.854734175056137 -0.042931353220927 255 0 0
3.389796714091764 -21.855018449155743 0.059368969739827 0 123 0
7.70997024759613 -13.37506080405016 -0.042931353220927 0 255 0
7.710528151170463 -13.375345078149762 0.059368969739827 0 123 0