ply
format ascii 1.0
element vertex 8
property double x
property double y
property double z
property uchar red
property uchar green
property uchar blue
element face 0
property list uchar int vertex_indices
end_header
-6.455878492133011 -14.41372077214235 0.080548807074254 0 255 0
-6.455826517346657 -14.413376838008753 -0.009513630248395 0 0 0
-5.011537903690688 -11.570538997390242  0.09223999138106 0 255 0
-5.011485928904334 -11.570195063256646  0.002177554058412 0 0 0
-0.445642757544149 -17.466895820957014  0.072357707445784 0 255 0
-0.445590782757796 -17.466551886823417 -0.017704729876865 0 0 0
 0.998697830898174 -14.623714046204904  0.084048891752591 0 255 0
 0.998749805684527 -14.623370112071308 -0.006013545570058 0 0 0